<svg version="1.1" id="Layer_1" xmlns="http://www.w3.org/2000/svg" xmlns:xlink="http://www.w3.org/1999/xlink" x="0px" y="0px"
	 width="100%" viewBox="0 0 567 567" enable-background="new 0 0 567 567" xml:space="preserve">
<path fill="#FFFFFF" opacity="1.000000" stroke="none" 
	d="
M376.000000,568.000000 
	C250.666672,568.000000 125.833336,568.000000 1.000000,568.000000 
	C1.000000,379.000000 1.000000,190.000000 1.000000,1.000000 
	C190.000000,1.000000 379.000000,1.000000 568.000000,1.000000 
	C568.000000,190.000000 568.000000,379.000000 568.000000,568.000000 
	C504.166656,568.000000 440.333344,568.000000 376.000000,568.000000 
M412.210388,196.500000 
	C412.210388,173.070984 412.210388,149.641968 412.210388,125.752632 
	C409.723816,125.752632 407.927551,125.752625 406.131287,125.752625 
	C387.968933,125.752655 369.800385,126.039017 351.646545,125.646080 
	C340.633545,125.407715 331.435150,129.207352 323.314240,136.099670 
	C307.255524,149.728882 299.658752,167.866592 298.165161,188.232285 
	C296.839905,206.302200 297.396515,224.510483 297.145966,242.658035 
	C297.129272,243.866714 297.312134,245.078156 297.410858,246.405228 
	C297.996155,246.188339 298.188965,246.172974 298.292633,246.068832 
	C298.757233,245.602188 299.200226,245.113693 299.644348,244.626999 
	C313.258148,229.708282 329.895782,221.672684 350.358093,221.870544 
	C369.018585,222.050995 387.682190,221.908875 406.344421,221.908936 
	C408.128448,221.908951 409.912476,221.908936 412.210602,221.908936 
	C412.210602,213.409790 412.210602,205.454895 412.210388,196.500000 
M199.500015,125.752579 
	C189.735107,125.752579 179.970200,125.752579 169.986404,125.752579 
	C169.986404,158.085464 169.986404,189.774796 169.986404,221.908813 
	C172.098022,221.908813 173.892700,221.908829 175.687378,221.908829 
	C194.334351,221.908829 212.982880,222.059296 231.627884,221.867752 
	C251.488358,221.663727 267.803284,229.296967 281.269714,243.545425 
	C282.220184,244.551086 282.750885,245.953461 283.854736,247.805450 
	C283.854736,226.163422 284.956787,206.170456 283.539886,186.357620 
	C282.166321,167.150528 274.481689,149.927551 259.495728,136.846176 
	C251.219757,129.621994 241.869461,125.229080 230.465240,125.671860 
	C220.490829,126.059135 210.489487,125.752411 199.500015,125.752579 
M189.401215,279.002411 
	C203.795578,318.352631 246.534241,347.569733 284.814850,343.819000 
	C284.814850,342.260101 284.814850,340.633148 284.814819,339.006195 
	C284.814697,321.673035 284.834137,304.339874 284.810120,287.006744 
	C284.770142,258.119568 261.712036,234.990707 232.794693,234.873337 
	C217.461777,234.811096 202.128372,234.854935 186.795227,234.875824 
	C185.524780,234.877563 184.254593,235.070724 182.841919,235.186630 
	C182.528931,250.124756 184.638214,264.361511 189.401215,279.002411 
M340.241272,334.803040 
	C383.128754,316.388214 400.321716,275.844421 398.638306,235.144302 
	C380.034485,235.144302 361.334961,233.996613 342.833527,235.421356 
	C317.014862,237.409607 297.204041,260.488129 297.162994,286.310638 
	C297.134949,303.971954 297.157593,321.633301 297.157593,339.294647 
	C297.157593,340.877441 297.157623,342.460236 297.157623,344.295807 
	C312.379303,343.885406 326.184113,340.556122 340.241272,334.803040 
M448.959045,419.356384 
	C455.493744,416.613770 462.028473,413.871124 468.461975,411.170990 
	C465.312836,395.186279 453.465485,386.278839 437.879913,387.758575 
	C423.596497,389.114685 412.303345,401.820648 412.140808,416.717743 
	C411.974854,431.929993 422.976837,444.465332 438.259918,446.477112 
	C451.642120,448.238647 464.827332,439.701141 467.743805,427.066956 
	C465.215759,427.066956 462.768677,427.090820 460.322235,427.061584 
	C456.223969,427.012634 452.748657,427.141083 449.225128,430.666107 
	C443.765198,436.128326 434.521698,434.277710 429.552216,427.582642 
	C435.854370,424.943054 442.072113,422.338837 448.959045,419.356384 
M157.168152,438.644592 
	C159.148849,434.504730 162.568863,430.455902 162.837494,426.207794 
	C163.610458,413.984039 163.110245,401.679810 163.110245,389.164673 
	C158.552246,389.164673 153.987518,389.164673 148.977798,389.164673 
	C148.977798,399.966522 149.022171,410.572083 148.960266,421.177063 
	C148.926010,427.048462 145.784683,431.045410 140.667328,432.029358 
	C133.069595,433.490234 127.943703,429.402222 127.865784,421.570404 
	C127.758705,410.807922 127.838989,400.043549 127.838989,389.250427 
	C122.531273,389.250427 117.803268,389.250427 112.822327,389.250427 
	C112.822327,400.537323 112.293427,411.531830 112.978203,422.450226 
	C113.603249,432.416229 117.754761,440.904449 127.960648,444.676147 
	C138.549576,448.589447 148.226486,446.857788 157.168152,438.644592 
M225.449066,433.470062 
	C225.388275,425.819458 225.616425,418.153229 225.203690,410.521667 
	C224.453934,396.658875 215.768982,388.316864 201.872345,387.604828 
	C188.071793,386.897705 176.840912,394.809814 175.585205,408.022186 
	C174.431839,420.157867 175.340149,432.489532 175.340149,444.780090 
	C180.133286,444.780090 184.691360,444.780090 189.625839,444.780090 
	C189.625839,442.857391 189.625031,441.219177 189.625992,439.580963 
	C189.631348,430.430969 189.493042,421.277893 189.691452,412.132080 
	C189.833160,405.600067 194.143478,401.707581 200.590607,401.747314 
	C206.881287,401.786041 210.585236,405.399689 210.865585,412.090302 
	C211.053482,416.574493 210.920486,421.072296 210.923340,425.564026 
	C210.927399,431.986664 210.924377,438.409332 210.924377,444.732605 
	C216.081436,444.732605 220.626083,444.732605 225.448853,444.732605 
	C225.448853,441.077026 225.448853,437.767242 225.449066,433.470062 
M272.936340,388.930084 
	C268.682129,388.930084 264.427917,388.930084 259.626251,388.930084 
	C265.516144,404.461334 271.168579,419.349121 276.807617,434.241974 
	C280.969666,445.234192 280.962250,445.125488 292.600800,445.159393 
	C295.568207,445.168030 296.926361,444.264435 297.954468,441.453308 
	C303.890961,425.221771 310.049316,409.071442 316.113159,392.886383 
	C316.549194,391.722565 316.831573,390.501221 317.297668,388.927460 
	C313.470032,388.927460 310.128693,389.173462 306.841309,388.857819 
	C303.596497,388.546265 302.190491,389.766785 301.220337,392.819427 
	C297.647064,404.063019 293.801666,415.220306 290.028198,426.399780 
	C289.713654,427.331604 289.171722,428.186676 288.434174,429.692566 
	C284.166016,416.959320 280.184784,404.983124 276.105469,393.040436 
	C275.610718,391.592010 274.587250,390.324097 272.936340,388.930084 
M352.892334,364.033661 
	C352.350159,365.554779 351.346344,367.072937 351.336456,368.597504 
	C351.224731,385.762543 351.225037,402.928772 351.304352,420.094177 
	C351.318115,423.076233 351.559753,426.114929 352.174713,429.026398 
	C354.650940,440.750000 364.900848,447.172150 376.481781,444.367401 
	C376.481781,440.315918 376.481781,436.250153 376.481781,432.232788 
	C367.853638,430.959564 366.031128,428.899567 366.020752,420.491821 
	C365.999786,403.492737 366.015656,386.493622 366.016266,369.494507 
	C366.016327,367.743164 366.016266,365.991821 366.016266,364.048981 
	C361.463013,364.048981 357.643341,364.048981 352.892334,364.033661 
M382.752686,373.525208 
	C382.788177,390.503937 382.484161,407.492279 382.963013,424.458496 
	C383.370026,438.878326 394.002808,447.145782 407.816742,444.457275 
	C407.816742,440.391663 407.816742,436.287628 407.816742,432.206543 
	C399.157532,431.006439 397.281128,428.874268 397.262360,420.165833 
	C397.233978,407.015076 397.255890,393.864136 397.256317,380.713287 
	C397.256500,375.277008 397.256348,369.840729 397.256348,364.332306 
	C392.148743,364.332306 387.583160,364.332306 382.752655,364.332306 
	C382.752655,367.242157 382.752655,369.887299 382.752686,373.525208 
M238.315506,391.823395 
	C238.315506,409.428864 238.315506,427.034363 238.315506,444.814606 
	C243.376007,444.814606 247.934677,444.814606 252.640762,444.814606 
	C252.640762,426.142029 252.640762,407.750916 252.640762,388.923615 
	C248.449585,388.923615 244.488251,388.820923 240.541199,389.012451 
	C239.774307,389.049622 239.063004,390.232880 238.315506,391.823395 
M339.012299,437.441925 
	C339.012299,421.346069 339.012299,405.250244 339.012299,389.279907 
	C333.818512,389.279907 329.259155,389.279907 324.759186,389.279907 
	C324.759186,408.041687 324.759186,426.439911 324.759186,444.735687 
	C329.687836,444.735687 334.256470,444.735687 339.012299,444.735687 
	C339.012299,442.398041 339.012299,440.412048 339.012299,437.441925 
M238.645325,372.576141 
	C238.472427,375.967346 238.299545,379.358551 238.126816,382.746338 
	C243.423294,382.746338 247.985840,382.746338 252.818649,382.746338 
	C252.465378,377.230072 254.992828,371.003998 248.148544,368.167328 
	C244.404434,366.615540 240.956451,367.954376 238.645325,372.576141 
M325.819946,370.577484 
	C325.109436,374.531311 324.398895,378.485138 323.643311,382.689789 
	C329.474670,382.689789 334.172424,382.689789 339.086792,382.689789 
	C338.445740,377.582886 340.934235,372.012360 335.415833,368.696106 
	C332.219818,366.775482 329.025818,367.345947 325.819946,370.577484 
z"/>
<path fill="#83C55C" opacity="1.000000" stroke="none" 
	d="
M412.210510,197.000000 
	C412.210602,205.454895 412.210602,213.409790 412.210602,221.908936 
	C409.912476,221.908936 408.128448,221.908951 406.344421,221.908936 
	C387.682190,221.908875 369.018585,222.050995 350.358093,221.870544 
	C329.895782,221.672684 313.258148,229.708282 299.644348,244.626999 
	C299.200226,245.113693 298.757233,245.602188 298.292633,246.068832 
	C298.188965,246.172974 297.996155,246.188339 297.410858,246.405228 
	C297.312134,245.078156 297.129272,243.866714 297.145966,242.658035 
	C297.396515,224.510483 296.839905,206.302200 298.165161,188.232285 
	C299.658752,167.866592 307.255524,149.728882 323.314240,136.099670 
	C331.435150,129.207352 340.633545,125.407715 351.646545,125.646080 
	C369.800385,126.039017 387.968933,125.752655 406.131287,125.752625 
	C407.927551,125.752625 409.723816,125.752632 412.210388,125.752632 
	C412.210388,149.641968 412.210388,173.070984 412.210510,197.000000 
z"/>
<path fill="#83C55C" opacity="1.000000" stroke="none" 
	d="
M200.000031,125.752426 
	C210.489487,125.752411 220.490829,126.059135 230.465240,125.671860 
	C241.869461,125.229080 251.219757,129.621994 259.495728,136.846176 
	C274.481689,149.927551 282.166321,167.150528 283.539886,186.357620 
	C284.956787,206.170456 283.854736,226.163422 283.854736,247.805450 
	C282.750885,245.953461 282.220184,244.551086 281.269714,243.545425 
	C267.803284,229.296967 251.488358,221.663727 231.627884,221.867752 
	C212.982880,222.059296 194.334351,221.908829 175.687378,221.908829 
	C173.892700,221.908829 172.098022,221.908813 169.986404,221.908813 
	C169.986404,189.774796 169.986404,158.085464 169.986404,125.752579 
	C179.970200,125.752579 189.735107,125.752579 200.000031,125.752426 
z"/>
<path fill="#016037" opacity="1.000000" stroke="none" 
	d="
M189.265717,278.629852 
	C184.638214,264.361511 182.528931,250.124756 182.841919,235.186630 
	C184.254593,235.070724 185.524780,234.877563 186.795227,234.875824 
	C202.128372,234.854935 217.461777,234.811096 232.794693,234.873337 
	C261.712036,234.990707 284.770142,258.119568 284.810120,287.006744 
	C284.834137,304.339874 284.814697,321.673035 284.814819,339.006195 
	C284.814850,340.633148 284.814850,342.260101 284.814850,343.819000 
	C246.534241,347.569733 203.795578,318.352631 189.265717,278.629852 
z"/>
<path fill="#016037" opacity="1.000000" stroke="none" 
	d="
M339.879761,334.924988 
	C326.184113,340.556122 312.379303,343.885406 297.157623,344.295807 
	C297.157623,342.460236 297.157593,340.877441 297.157593,339.294647 
	C297.157593,321.633301 297.134949,303.971954 297.162994,286.310638 
	C297.204041,260.488129 317.014862,237.409607 342.833527,235.421356 
	C361.334961,233.996613 380.034485,235.144302 398.638306,235.144302 
	C400.321716,275.844421 383.128754,316.388214 339.879761,334.924988 
z"/>
<path fill="#05623A" opacity="1.000000" stroke="none" 
	d="
M448.624451,419.545471 
	C442.072113,422.338837 435.854370,424.943054 429.552216,427.582642 
	C434.521698,434.277710 443.765198,436.128326 449.225128,430.666107 
	C452.748657,427.141083 456.223969,427.012634 460.322235,427.061584 
	C462.768677,427.090820 465.215759,427.066956 467.743805,427.066956 
	C464.827332,439.701141 451.642120,448.238647 438.259918,446.477112 
	C422.976837,444.465332 411.974854,431.929993 412.140808,416.717743 
	C412.303345,401.820648 423.596497,389.114685 437.879913,387.758575 
	C453.465485,386.278839 465.312836,395.186279 468.461975,411.170990 
	C462.028473,413.871124 455.493744,416.613770 448.624451,419.545471 
M428.511200,415.019867 
	C436.141418,411.780151 443.771637,408.540436 451.807678,405.128387 
	C446.852478,400.402161 441.795959,399.167938 436.145325,401.064545 
	C430.671875,402.901672 427.530365,407.025024 426.250702,412.515717 
	C426.050049,413.376740 424.182190,416.132385 428.511200,415.019867 
z"/>
<path fill="#07643C" opacity="1.000000" stroke="none" 
	d="
M156.921356,438.905945 
	C148.226486,446.857788 138.549576,448.589447 127.960648,444.676147 
	C117.754761,440.904449 113.603249,432.416229 112.978203,422.450226 
	C112.293427,411.531830 112.822327,400.537323 112.822327,389.250427 
	C117.803268,389.250427 122.531273,389.250427 127.838989,389.250427 
	C127.838989,400.043549 127.758705,410.807922 127.865784,421.570404 
	C127.943703,429.402222 133.069595,433.490234 140.667328,432.029358 
	C145.784683,431.045410 148.926010,427.048462 148.960266,421.177063 
	C149.022171,410.572083 148.977798,399.966522 148.977798,389.164673 
	C153.987518,389.164673 158.552246,389.164673 163.110245,389.164673 
	C163.110245,401.679810 163.610458,413.984039 162.837494,426.207794 
	C162.568863,430.455902 159.148849,434.504730 156.921356,438.905945 
z"/>
<path fill="#05623A" opacity="1.000000" stroke="none" 
	d="
M225.448959,433.963745 
	C225.448853,437.767242 225.448853,441.077026 225.448853,444.732605 
	C220.626083,444.732605 216.081436,444.732605 210.924377,444.732605 
	C210.924377,438.409332 210.927399,431.986664 210.923340,425.564026 
	C210.920486,421.072296 211.053482,416.574493 210.865585,412.090302 
	C210.585236,405.399689 206.881287,401.786041 200.590607,401.747314 
	C194.143478,401.707581 189.833160,405.600067 189.691452,412.132080 
	C189.493042,421.277893 189.631348,430.430969 189.625992,439.580963 
	C189.625031,441.219177 189.625839,442.857391 189.625839,444.780090 
	C184.691360,444.780090 180.133286,444.780090 175.340149,444.780090 
	C175.340149,432.489532 174.431839,420.157867 175.585205,408.022186 
	C176.840912,394.809814 188.071793,386.897705 201.872345,387.604828 
	C215.768982,388.316864 224.453934,396.658875 225.203690,410.521667 
	C225.616425,418.153229 225.388275,425.819458 225.448959,433.963745 
z"/>
<path fill="#05623A" opacity="1.000000" stroke="none" 
	d="
M273.372559,388.951294 
	C274.587250,390.324097 275.610718,391.592010 276.105469,393.040436 
	C280.184784,404.983124 284.166016,416.959320 288.434174,429.692566 
	C289.171722,428.186676 289.713654,427.331604 290.028198,426.399780 
	C293.801666,415.220306 297.647064,404.063019 301.220337,392.819427 
	C302.190491,389.766785 303.596497,388.546265 306.841309,388.857819 
	C310.128693,389.173462 313.470032,388.927460 317.297668,388.927460 
	C316.831573,390.501221 316.549194,391.722565 316.113159,392.886383 
	C310.049316,409.071442 303.890961,425.221771 297.954468,441.453308 
	C296.926361,444.264435 295.568207,445.168030 292.600800,445.159393 
	C280.962250,445.125488 280.969666,445.234192 276.807617,434.241974 
	C271.168579,419.349121 265.516144,404.461334 259.626251,388.930084 
	C264.427917,388.930084 268.682129,388.930084 273.372559,388.951294 
z"/>
<path fill="#07643C" opacity="1.000000" stroke="none" 
	d="
M353.358002,364.041321 
	C357.643341,364.048981 361.463013,364.048981 366.016266,364.048981 
	C366.016266,365.991821 366.016327,367.743164 366.016266,369.494507 
	C366.015656,386.493622 365.999786,403.492737 366.020752,420.491821 
	C366.031128,428.899567 367.853638,430.959564 376.481781,432.232788 
	C376.481781,436.250153 376.481781,440.315918 376.481781,444.367401 
	C364.900848,447.172150 354.650940,440.750000 352.174713,429.026398 
	C351.559753,426.114929 351.318115,423.076233 351.304352,420.094177 
	C351.225037,402.928772 351.224731,385.762543 351.336456,368.597504 
	C351.346344,367.072937 352.350159,365.554779 353.358002,364.041321 
z"/>
<path fill="#026037" opacity="1.000000" stroke="none" 
	d="
M382.752686,373.028809 
	C382.752655,369.887299 382.752655,367.242157 382.752655,364.332306 
	C387.583160,364.332306 392.148743,364.332306 397.256348,364.332306 
	C397.256348,369.840729 397.256500,375.277008 397.256317,380.713287 
	C397.255890,393.864136 397.233978,407.015076 397.262360,420.165833 
	C397.281128,428.874268 399.157532,431.006439 407.816742,432.206543 
	C407.816742,436.287628 407.816742,440.391663 407.816742,444.457275 
	C394.002808,447.145782 383.370026,438.878326 382.963013,424.458496 
	C382.484161,407.492279 382.788177,390.503937 382.752686,373.028809 
z"/>
<path fill="#0B663F" opacity="1.000000" stroke="none" 
	d="
M238.320770,391.355469 
	C239.063004,390.232880 239.774307,389.049622 240.541199,389.012451 
	C244.488251,388.820923 248.449585,388.923615 252.640762,388.923615 
	C252.640762,407.750916 252.640762,426.142029 252.640762,444.814606 
	C247.934677,444.814606 243.376007,444.814606 238.315506,444.814606 
	C238.315506,427.034363 238.315506,409.428864 238.320770,391.355469 
z"/>
<path fill="#09653D" opacity="1.000000" stroke="none" 
	d="
M339.012299,437.934021 
	C339.012299,440.412048 339.012299,442.398041 339.012299,444.735687 
	C334.256470,444.735687 329.687836,444.735687 324.759186,444.735687 
	C324.759186,426.439911 324.759186,408.041687 324.759186,389.279907 
	C329.259155,389.279907 333.818512,389.279907 339.012299,389.279907 
	C339.012299,405.250244 339.012299,421.346069 339.012299,437.934021 
z"/>
<path fill="#08643D" opacity="1.000000" stroke="none" 
	d="
M238.793701,372.204773 
	C240.956451,367.954376 244.404434,366.615540 248.148544,368.167328 
	C254.992828,371.003998 252.465378,377.230072 252.818649,382.746338 
	C247.985840,382.746338 243.423294,382.746338 238.126816,382.746338 
	C238.299545,379.358551 238.472427,375.967346 238.793701,372.204773 
z"/>
<path fill="#08643C" opacity="1.000000" stroke="none" 
	d="
M326.056641,370.277618 
	C329.025818,367.345947 332.219818,366.775482 335.415833,368.696106 
	C340.934235,372.012360 338.445740,377.582886 339.086792,382.689789 
	C334.172424,382.689789 329.474670,382.689789 323.643311,382.689789 
	C324.398895,378.485138 325.109436,374.531311 326.056641,370.277618 
z"/>
<path fill="#F5F9F7" opacity="1.000000" stroke="none" 
	d="
M428.147217,415.158936 
	C424.182190,416.132385 426.050049,413.376740 426.250702,412.515717 
	C427.530365,407.025024 430.671875,402.901672 436.145325,401.064545 
	C441.795959,399.167938 446.852478,400.402161 451.807678,405.128387 
	C443.771637,408.540436 436.141418,411.780151 428.147217,415.158936 
z"/>
</svg>